Coordinates
version=1
nRows=19
nColumns=63
inDegrees=yes

Units are S.I. units (second, meters, Newtons, ...)
If the header above contains a line with 'inDegrees', this indicates whether rotational values are in degrees (yes) or radians (no).

endheader
time	pelvis_tilt	pelvis_list	pelvis_rotation	pelvis_tx	pelvis_ty	pelvis_tz	hip_flexion_r	hip_adduction_r	hip_rotation_r	knee_angle_r	knee_angle_r_beta	ankle_angle_r	subtalar_angle_r	mtp_angle_r	hip_flexion_l	hip_adduction_l	hip_rotation_l	knee_angle_l	knee_angle_l_beta	ankle_angle_l	subtalar_angle_l	mtp_angle_l	L5_S1_Flex_Ext	L5_S1_Lat_Bending	L5_S1_axial_rotation	L4_L5_Flex_Ext	L4_L5_Lat_Bending	L4_L5_axial_rotation	L3_L4_Flex_Ext	L3_L4_Lat_Bending	L3_L4_axial_rotation	L2_L3_Flex_Ext	L2_L3_Lat_Bending	L2_L3_axial_rotation	L1_L2_Flex_Ext	L1_L2_Lat_Bending	L1_L2_axial_rotation	L1_T12_Flex_Ext	L1_T12_Lat_Bending	L1_T12_axial_rotation	Abs_r3	Abs_r2	Abs_r1	Abs_t1	Abs_t2	neck_flexion	neck_bending	neck_rotation	arm_flex_r	arm_add_r	arm_rot_r	elbow_flex_r	pro_sup_r	wrist_flex_r	wrist_dev_r	arm_flex_l	arm_add_l	arm_rot_l	elbow_flex_l	pro_sup_l	wrist_flex_l	wrist_dev_l
3.135593	4.206962	-0.808842	119.161597	0.295046	0.571322	0.932072	5.464798	-1.244671	-18.578471	16.539479	0.288668	34.838597	10.070549	0.000000	3.597458	0.180796	-7.391067	9.394746	0.163969	31.590967	15.937214	0.000000	-0.188955	0.273374	-1.777776	-0.350909	0.363587	-1.888888	-0.310435	0.664680	-1.888888	-0.215957	0.664680	-1.555554	-0.175464	0.557463	-1.444443	-0.107969	0.423456	-1.333332	-1.349688	3.092456	-9.887460	0.000000	0.000000	18.959030	0.262306	5.625285	-1.733829	-21.694039	25.391804	23.615539	69.303008	-7.514543	1.346041	4.245245	-16.825211	106.211908	5.030737	3.181829	-4.055320	-8.471459
3.152542	4.262562	-0.892962	119.144548	0.295036	0.571334	0.932151	5.553741	-1.232999	-18.520710	16.494570	0.287885	34.856778	10.092731	0.000000	3.634606	0.199330	-7.277932	9.237234	0.161220	31.562432	15.940046	0.000000	-0.183581	0.264322	-1.774432	-0.340929	0.351549	-1.885334	-0.301606	0.642673	-1.885334	-0.209815	0.642673	-1.552628	-0.170474	0.539006	-1.441726	-0.104898	0.409435	-1.330824	-1.311303	2.990067	-9.868858	0.000000	0.000000	18.691655	0.023368	6.168861	-1.675211	-21.652955	26.213046	23.393555	68.099068	-7.473079	0.939616	4.302712	-16.707227	106.606715	4.894513	3.233016	-4.027947	-8.411131
3.169492	4.324044	-1.000405	119.112305	0.295082	0.571372	0.932182	5.674816	-1.222374	-18.463345	16.453270	0.287164	34.888443	10.120451	0.000000	3.661431	0.232583	-7.067962	8.990653	0.156917	31.508696	15.852105	0.000000	-0.176494	0.255027	-1.770186	-0.327767	0.339186	-1.880823	-0.289962	0.620074	-1.880823	-0.201715	0.620074	-1.548913	-0.163893	0.520052	-1.438276	-0.100849	0.395037	-1.327640	-1.260680	2.884921	-9.845246	0.000000	0.000000	18.499994	-0.264187	6.679168	-1.626044	-21.588919	26.808433	23.199129	67.158989	-7.375490	0.589813	4.371570	-16.567310	107.028866	4.750152	3.291090	-4.054633	-8.390546
3.186441	4.381506	-1.128166	119.077217	0.295184	0.571432	0.932200	5.823137	-1.226069	-18.435318	16.423461	0.286643	34.933179	10.178219	0.000000	3.682822	0.282584	-6.817206	8.678959	0.151476	31.434670	15.752500	0.000000	-0.168847	0.244745	-1.761780	-0.313567	0.325511	-1.871892	-0.277399	0.595074	-1.871892	-0.192976	0.595074	-1.541558	-0.156792	0.499085	-1.431447	-0.096479	0.379110	-1.321335	-1.206060	2.768608	-9.798494	0.000000	0.000000	18.398327	-0.630461	7.080188	-1.597469	-21.504165	27.172297	23.046948	66.447834	-7.251088	0.342371	4.468625	-16.408081	107.496031	4.599513	3.334696	-4.124179	-8.367671
3.203390	4.449881	-1.266949	119.049301	0.295335	0.571499	0.932208	5.997005	-1.224660	-18.437460	16.405903	0.286337	34.983675	10.252286	0.000000	3.698100	0.329117	-6.533988	8.301729	0.144893	31.342729	15.659728	0.000000	-0.161134	0.235591	-1.750370	-0.299242	0.313337	-1.859768	-0.264727	0.572817	-1.859768	-0.184160	0.572817	-1.531573	-0.149629	0.480418	-1.422175	-0.092072	0.364931	-1.312777	-1.150966	2.665057	-9.735030	0.000000	0.000000	18.397879	-1.037834	7.380809	-1.586970	-21.415097	27.342264	22.934943	65.943225	-7.112211	0.191386	4.583803	-16.229335	107.986182	4.444611	3.358232	-4.222714	-8.385190
3.220339	4.517982	-1.408938	119.002539	0.295546	0.571577	0.932206	6.190567	-1.211617	-18.356243	16.400998	0.286251	35.014742	10.211289	0.000000	3.699274	0.379076	-6.216089	7.873907	0.137426	31.231035	15.520485	0.000000	-0.155362	0.226870	-1.727355	-0.288523	0.301737	-1.835314	-0.255245	0.551611	-1.835314	-0.177564	0.551611	-1.511435	-0.144269	0.462633	-1.403476	-0.088774	0.351421	-1.295516	-1.109737	2.566395	-9.607028	0.000000	0.000000	18.477583	-1.511844	7.503376	-1.607912	-21.334695	27.331760	22.884852	65.638485	-7.006522	0.149217	4.723939	-16.043966	108.368892	4.321051	3.415016	-4.374821	-8.474370
3.237288	4.586595	-1.552334	118.951882	0.295775	0.571649	0.932201	6.391168	-1.201734	-18.303981	16.403524	0.286296	35.032382	10.189087	0.000000	3.694386	0.427539	-5.919401	7.415542	0.129426	31.112571	15.420331	0.000000	-0.151332	0.218962	-1.693526	-0.281038	0.291219	-1.799372	-0.248623	0.532383	-1.799372	-0.172957	0.532383	-1.481835	-0.140527	0.446507	-1.375990	-0.086471	0.339172	-1.270145	-1.080946	2.476938	-9.418884	0.000000	0.000000	18.635157	-2.010674	7.476480	-1.678542	-21.256481	27.002912	22.902757	65.712429	-6.898350	0.233601	4.888356	-15.842382	108.902122	4.178186	3.403680	-4.537454	-8.633475
3.254237	4.661002	-1.684553	118.897017	0.295989	0.571720	0.932175	6.582443	-1.185922	-18.297616	16.405461	0.286329	35.025205	10.203497	0.000000	3.679036	0.463934	-5.632514	6.943763	0.121192	30.988392	15.339236	0.000000	-0.149297	0.213202	-1.649741	-0.277259	0.283559	-1.752850	-0.245280	0.518379	-1.752850	-0.170632	0.518379	-1.443524	-0.138637	0.434761	-1.340415	-0.085308	0.330250	-1.237306	-1.066413	2.411782	-9.175367	0.000000	0.000000	18.850285	-2.499515	7.346979	-1.784098	-21.204843	26.460830	22.977309	66.088320	-6.799928	0.419579	5.059099	-15.624408	109.484816	4.024941	3.354974	-4.729967	-8.883811
3.271186	4.734547	-1.796681	118.851185	0.296140	0.571791	0.932128	6.747518	-1.167273	-18.345536	16.404139	0.286306	34.991160	10.245053	0.000000	3.648383	0.490710	-5.345426	6.480424	0.113105	30.854910	15.269223	0.000000	-0.149506	0.209479	-1.599498	-0.277648	0.278606	-1.699467	-0.245624	0.509326	-1.699467	-0.170871	0.509326	-1.399561	-0.138831	0.427169	-1.299592	-0.085428	0.324482	-1.199623	-1.067908	2.369663	-8.895928	0.000000	0.000000	19.098488	-2.993282	7.109964	-1.917898	-21.181102	25.702234	23.104358	66.798656	-6.704013	0.709665	5.225776	-15.392091	110.113676	3.852654	3.272956	-4.935148	-9.207890
3.288136	4.810709	-1.879121	118.818782	0.296238	0.571861	0.932053	6.878559	-1.138672	-18.455193	16.401940	0.286268	34.940575	10.325771	0.000000	3.594735	0.497116	-5.062513	6.032635	0.105289	30.706295	15.212779	0.000000	-0.152740	0.208062	-1.545167	-0.283654	0.276723	-1.641740	-0.250937	0.505883	-1.641740	-0.174567	0.505883	-1.352021	-0.141835	0.424281	-1.255448	-0.087276	0.322288	-1.158875	-1.091009	2.353642	-8.593754	0.000000	0.000000	19.387130	-3.502265	6.730245	-2.074416	-21.183170	24.737977	23.296780	67.857077	-6.614983	1.099978	5.387371	-15.153109	110.913499	3.641744	3.106210	-5.123952	-9.563190
3.305085	4.902593	-1.939489	118.797444	0.296261	0.571915	0.931950	6.979323	-1.091078	-18.633724	16.380806	0.285899	34.872851	10.461604	0.000000	3.553379	0.470651	-4.813477	5.657104	0.098735	30.558389	15.175156	0.000000	-0.155022	0.211871	-1.498897	-0.287892	0.281789	-1.592578	-0.254686	0.515144	-1.592578	-0.177175	0.515144	-1.311535	-0.143954	0.432048	-1.217854	-0.088580	0.328189	-1.124173	-1.107310	2.396730	-8.336416	0.000000	0.000000	19.650757	-3.886801	6.525961	-2.230678	-21.200806	23.526966	23.544103	69.189964	-6.483944	1.555539	5.502425	-14.910976	111.629179	3.434612	2.985957	-5.286848	-10.008915
3.322034	4.994830	-1.972020	118.793279	0.296197	0.571967	0.931831	7.037476	-1.032431	-18.844445	16.342497	0.285230	34.796026	10.604466	0.000000	3.515350	0.425159	-4.578568	5.369008	0.093707	30.411722	15.116952	0.000000	-0.156929	0.219565	-1.460131	-0.291432	0.292022	-1.551390	-0.257818	0.533851	-1.551390	-0.179354	0.533851	-1.277615	-0.145724	0.447738	-1.186357	-0.089669	0.340107	-1.095099	-1.120926	2.483767	-8.120813	0.000000	0.000000	19.859471	-4.181867	6.416674	-2.402828	-21.236544	22.166013	23.861069	70.659942	-6.349501	1.996746	5.600970	-14.682186	112.512834	3.239774	2.907327	-5.384628	-10.490074
3.338983	5.107930	-1.970171	118.808521	0.296089	0.572037	0.931765	7.058135	-0.942922	-19.115739	16.285205	0.284230	34.700316	10.791895	0.000000	3.493515	0.332741	-4.401705	5.180172	0.090411	30.269784	15.092058	0.000000	-0.158787	0.233725	-1.441122	-0.294883	0.310854	-1.531192	-0.260871	0.568279	-1.531192	-0.181478	0.568279	-1.260982	-0.147450	0.476612	-1.170912	-0.090731	0.362040	-1.080842	-1.134200	2.643945	-8.015088	0.000000	0.000000	20.017000	-4.439405	6.414180	-2.523274	-21.285236	20.900865	24.211033	72.000361	-6.256713	2.418509	5.664874	-14.449661	113.513877	3.046608	2.833544	-5.469469	-10.912642
3.355932	5.211562	-1.942726	118.817271	0.295962	0.572119	0.931747	7.041823	-0.854948	-19.405613	16.220509	0.283101	34.603466	11.018297	0.000000	3.479073	0.227821	-4.302041	5.091884	0.088870	30.143414	15.076732	0.000000	-0.160604	0.251064	-1.434959	-0.298258	0.333915	-1.524644	-0.263857	0.610436	-1.524644	-0.183555	0.610436	-1.255589	-0.149137	0.511969	-1.165904	-0.091769	0.388897	-1.076219	-1.147180	2.840081	-7.980810	0.000000	0.000000	20.094832	-4.596364	6.552728	-2.633131	-21.335165	19.736482	24.608089	73.182500	-6.173861	2.728196	5.717827	-14.232516	114.739490	2.861686	2.864146	-5.438676	-11.312302
3.372881	5.303521	-1.897606	118.814192	0.295851	0.572201	0.931765	6.994208	-0.768586	-19.678130	16.144647	0.281777	34.510350	11.253113	0.000000	3.475014	0.116443	-4.274286	5.095009	0.088925	30.035729	15.059034	0.000000	-0.161201	0.269996	-1.439834	-0.299367	0.359094	-1.529824	-0.264838	0.656468	-1.529824	-0.184237	0.656468	-1.259855	-0.149692	0.550575	-1.169865	-0.092111	0.418223	-1.079876	-1.151446	3.054246	-8.007926	0.000000	0.000000	20.084047	-4.645976	6.773513	-2.751334	-21.367823	18.731899	25.042709	74.147351	-6.086599	2.889508	5.756992	-14.035046	116.259559	2.671419	2.944440	-5.263363	-11.684478
3.389831	5.367690	-1.842356	118.793435	0.295796	0.572281	0.931795	6.920157	-0.704003	-19.941450	16.069982	0.280474	34.442094	11.525342	0.000000	3.468715	0.019012	-4.286930	5.161961	0.090093	29.942107	15.009475	0.000000	-0.160608	0.287129	-1.454839	-0.298265	0.381881	-1.545767	-0.263862	0.698125	-1.545767	-0.183559	0.698125	-1.272984	-0.149140	0.585513	-1.182057	-0.091771	0.444763	-1.091129	-1.147205	3.248059	-8.091379	0.000000	0.000000	19.987628	-4.579947	7.029372	-2.874839	-21.363110	17.977269	25.490689	74.872615	-5.983944	2.878968	5.767775	-13.868760	118.028050	2.456287	3.027649	-4.867662	-12.014525
3.406780	5.399946	-1.788657	118.766390	0.295817	0.572345	0.931860	6.828198	-0.669099	-20.191145	15.991191	0.279099	34.397849	11.826162	0.000000	3.466734	-0.056435	-4.353483	5.277055	0.092102	29.860269	14.985095	0.000000	-0.158340	0.300498	-1.477561	-0.294053	0.399663	-1.569909	-0.260136	0.730631	-1.569909	-0.180967	0.730631	-1.292866	-0.147034	0.612776	-1.200518	-0.090475	0.465472	-1.108171	-1.131005	3.399296	-8.217751	0.000000	0.000000	19.823488	-4.379483	7.296082	-3.001441	-21.325244	17.549036	25.947201	75.326406	-5.865244	2.698707	5.755990	-13.744214	119.934048	2.232657	3.092190	-4.235429	-12.286542
3.423729	5.379818	-1.735883	118.696363	0.295989	0.572410	0.931908	6.721191	-0.679983	-20.389964	15.926759	0.277974	34.392433	12.168986	0.000000	3.436077	-0.088343	-4.452710	5.392130	0.094110	29.768144	14.927436	0.000000	-0.155471	0.306444	-1.499961	-0.288725	0.407571	-1.593709	-0.255423	0.745088	-1.593709	-0.177688	0.745088	-1.312466	-0.144370	0.624901	-1.218718	-0.088836	0.474682	-1.124971	-1.110513	3.466556	-8.342334	0.000000	0.000000	19.588425	-4.077935	7.481525	-3.108994	-21.256042	17.537133	26.408407	75.553704	-5.761545	2.352015	5.718070	-13.678226	121.975526	2.001471	3.057890	-3.405370	-12.462201
3.440678	5.305380	-1.690214	118.596224	0.296361	0.572457	0.931955	6.604601	-0.732171	-20.498168	15.870139	0.276986	34.427201	12.495676	0.000000	3.401067	-0.077436	-4.560002	5.534520	0.096596	29.691694	14.834696	0.000000	-0.152328	0.303280	-1.524145	-0.282888	0.403362	-1.619404	-0.250259	0.737395	-1.619404	-0.174095	0.737395	-1.333627	-0.141452	0.618448	-1.238368	-0.087040	0.469780	-1.143108	-1.088062	3.430762	-8.476835	0.000000	0.000000	19.290134	-3.602320	7.651968	-3.180000	-21.125194	17.861534	26.886350	75.734331	-5.626207	1.891099	5.654819	-13.710281	123.662776	1.849724	3.028306	-2.425949	-12.520771
